# xmcd
# 
# Track frame offsets:
#     150
#     19535
#     36601
#     60320
# 
# Disc length: 1062
# 
# Revision: 0
# Processed by: cddbd v1.5.2PL0 Copyright (c) Steve Scherf et al.
# Submitted via: fre:ac v1.0.17
# 
DISCID=2a042404
DTITLE=heidi. - 月光ショータイム（通常盤）
DYEAR=2011
DGENRE=
TTITLE0=月光ショータイム
TTITLE1=サイ
TTITLE2=ヤサシイウタ[Remaster]
TTITLE3=月光ショータイム[Instrumental]
EXTD=
EXTT0=
EXTT1=
EXTT2=
EXTT3=
PLAYORDER=
